<svg width="624" height="208" viewBox="0 0 624 208" fill="none" xmlns="http://www.w3.org/2000/svg">
<path d="M419.776 41.8428L395.203 93.7939H425.511L465.407 169.989H434.967L395.037 94.1436L359.105 170.11H328.665L352.43 119.688H275.569L287.654 93.7939H364.634L389.118 41.8428H419.776ZM506.553 170.11H476.111L536.565 41.8428H567.223L506.553 170.11ZM160.562 169.993H0L12.0908 144.094H172.647L160.562 169.993ZM308.901 68.2041H269.119L220.51 169.993H190.155L238.466 68.2041H48.3447L60.4297 42.3105H320.992L308.901 68.2041ZM113.74 119.693H23.5566L35.6475 93.7939H125.825L113.74 119.693Z" fill="white"/>
</svg>
